<svg width="50" height="32" viewBox="0 0 50 32" fill="none" xmlns="http://www.w3.org/2000/svg">
<path d="M30.6103 32H7.42877C3.3331 32 0 28.5446 0 24.2976V7.70244C0 3.45543 3.3323 0 7.42877 0H30.6111C34.7068 0 38.0391 3.45543 38.0391 7.70244C38.0391 8.03013 37.9135 8.34439 37.6901 8.5761C37.4666 8.80782 37.1636 8.93799 36.8475 8.93799C36.5315 8.93799 36.2285 8.80782 36.005 8.5761C35.7816 8.34439 35.656 8.03013 35.656 7.70244C35.6546 6.31547 35.1226 4.98575 34.1768 4.00501C33.231 3.02428 31.9486 2.47263 30.6111 2.47111H7.42877C6.09115 2.47263 4.80873 3.02425 3.86281 4.00496C2.9169 4.98568 2.38473 6.3154 2.38305 7.70244V24.2976C2.38473 25.6846 2.9169 27.0143 3.86281 27.995C4.80873 28.9757 6.09115 29.5274 7.42877 29.5289H30.6111C31.9486 29.5274 33.231 28.9757 34.1768 27.995C35.1226 27.0143 35.6546 25.6845 35.656 24.2976C35.656 23.9699 35.7816 23.6556 36.005 23.4239C36.2285 23.1922 36.5315 23.062 36.8475 23.062C37.1636 23.062 37.4666 23.1922 37.6901 23.4239C37.9135 23.6556 38.0391 23.9699 38.0391 24.2976C38.0383 28.5446 34.7068 32 30.6103 32Z" fill="url(#paint0_linear)"/>
<path d="M48.8081 17.1445H32.1267C31.8107 17.1445 31.5076 17.0144 31.2842 16.7827C31.0607 16.5509 30.9352 16.2367 30.9352 15.909C30.9352 15.5813 31.0607 15.267 31.2842 15.0353C31.5076 14.8036 31.8107 14.6734 32.1267 14.6734H48.8081C49.1241 14.6734 49.4272 14.8036 49.6506 15.0353C49.8741 15.267 49.9996 15.5813 49.9996 15.909C49.9996 16.2367 49.8741 16.5509 49.6506 16.7827C49.4272 17.0144 49.1241 17.1445 48.8081 17.1445Z" fill="url(#paint1_linear)"/>
<path d="M48.8081 17.1445C48.4927 17.1445 48.1766 17.0152 47.9422 16.7582L41.3221 9.5014C41.1049 9.26328 40.9878 8.94544 40.9966 8.6178C41.0054 8.29016 41.1394 7.97956 41.369 7.75433C41.5986 7.5291 41.9051 7.40769 42.2211 7.4168C42.5371 7.42591 42.8366 7.56481 43.0538 7.80293L49.6739 15.0597C49.834 15.2352 49.941 15.4554 49.9817 15.6932C50.0224 15.9309 49.9949 16.1759 49.9028 16.3977C49.8107 16.6195 49.6579 16.8084 49.4633 16.9412C49.2688 17.0739 49.041 17.1446 48.8081 17.1445Z" fill="url(#paint2_linear)"/>
<path d="M42.188 24.4013C41.9551 24.4014 41.7273 24.3307 41.5327 24.198C41.3381 24.0653 41.1853 23.8763 41.0932 23.6545C41.0011 23.4327 40.9737 23.1877 41.0144 22.95C41.0551 22.7122 41.162 22.492 41.3221 22.3165L47.9422 15.0589C48.0498 14.941 48.1787 14.8462 48.3216 14.78C48.4644 14.7137 48.6185 14.6773 48.775 14.6728C48.9314 14.6683 49.0872 14.6958 49.2334 14.7537C49.3796 14.8116 49.5134 14.8988 49.6271 15.0103C49.7408 15.1218 49.8322 15.2555 49.8961 15.4036C49.96 15.5518 49.9951 15.7116 49.9994 15.8738C50.0038 16.036 49.9773 16.1975 49.9214 16.3492C49.8656 16.5008 49.7815 16.6395 49.6739 16.7574L43.0538 24.015C42.9425 24.1372 42.8083 24.2345 42.6594 24.3009C42.5105 24.3674 42.3501 24.4015 42.188 24.4013ZM19.0422 21.6749C18.7395 21.6755 18.4482 21.5558 18.228 21.3405L5.25384 8.72958C5.135 8.61993 5.03853 8.48672 4.97014 8.33779C4.90174 8.18887 4.86279 8.02725 4.85559 7.86246C4.84839 7.69768 4.87308 7.53307 4.92821 7.37834C4.98334 7.22361 5.06779 7.08189 5.17658 6.96155C5.28537 6.8412 5.4163 6.74466 5.56165 6.67762C5.70699 6.61059 5.86381 6.5744 6.02286 6.57121C6.1819 6.56803 6.33995 6.59789 6.48769 6.65905C6.63542 6.72021 6.76986 6.81143 6.88305 6.92732L19.8572 19.5382C20.0314 19.7077 20.1525 19.9275 20.2047 20.1693C20.2569 20.411 20.2379 20.6634 20.15 20.8938C20.0621 21.1241 19.9095 21.3218 19.712 21.4611C19.5144 21.6003 19.2811 21.6748 19.0422 21.6749Z" fill="url(#paint3_linear)"/>
<path d="M6.06806 25.225C5.83143 25.2248 5.60022 25.1515 5.40388 25.0145C5.20753 24.8776 5.05493 24.6831 4.96549 24.456C4.87605 24.2288 4.85382 23.9791 4.90164 23.7388C4.94945 23.4985 5.06515 23.2784 5.23399 23.1065L13.3094 14.8975C13.5351 14.6681 13.8395 14.5411 14.1555 14.5444C14.4715 14.5477 14.7734 14.6811 14.9946 14.9152C15.2158 15.1492 15.3383 15.4649 15.3351 15.7926C15.3319 16.1203 15.2032 16.4333 14.9775 16.6626L6.90213 24.8717C6.67981 25.0987 6.3801 25.2257 6.06806 25.225ZM19.0422 21.6749C18.8043 21.6749 18.5718 21.6011 18.3747 21.4629C18.1775 21.3247 18.0248 21.1285 17.9362 20.8995C17.8476 20.6705 17.8271 20.4193 17.8774 20.1781C17.9277 19.937 18.0465 19.717 18.2184 19.5464L30.9281 6.93555C31.1564 6.70901 31.4622 6.58582 31.7782 6.59308C32.0942 6.60034 32.3944 6.73745 32.6129 6.97426C32.8313 7.21107 32.9501 7.52818 32.9431 7.85582C32.9361 8.18346 32.8039 8.49479 32.5755 8.72134L19.8659 21.3322C19.6443 21.5525 19.3491 21.6753 19.0422 21.6749Z" fill="url(#paint4_linear)"/>
<path d="M32.5461 25.2251C32.2451 25.2251 31.944 25.1073 31.7121 24.8717L23.6359 16.6627C23.5216 16.5497 23.43 16.4143 23.3666 16.2644C23.3032 16.1144 23.2692 15.9529 23.2665 15.7892C23.2638 15.6255 23.2925 15.4628 23.351 15.3107C23.4094 15.1586 23.4964 15.0201 23.607 14.9032C23.7175 14.7862 23.8494 14.6933 23.9949 14.6297C24.1404 14.566 24.2966 14.533 24.4545 14.5326C24.6124 14.5321 24.7689 14.5642 24.9147 14.627C25.0605 14.6898 25.1929 14.782 25.304 14.8983L33.3802 23.1073C33.55 23.2788 33.6665 23.4989 33.7148 23.7395C33.7631 23.9801 33.7411 24.2302 33.6515 24.4577C33.5619 24.6852 33.4088 24.8798 33.2119 25.0165C33.0149 25.1532 32.7831 25.2258 32.5461 25.2251Z" fill="url(#paint5_linear)"/>
<defs>
<linearGradient id="paint0_linear" x1="-12.5009" y1="6.26695" x2="22.4107" y2="21.9664" gradientUnits="userSpaceOnUse">
<stop stop-color="white"/>
<stop offset="1" stop-color="white"/>
</linearGradient>
<linearGradient id="paint1_linear" x1="9.55559" y1="33.1225" x2="27.0526" y2="40.9907" gradientUnits="userSpaceOnUse">
<stop stop-color="white"/>
<stop offset="1" stop-color="white"/>
</linearGradient>
<linearGradient id="paint2_linear" x1="21.6316" y1="30.9543" x2="29.8952" y2="34.6704" gradientUnits="userSpaceOnUse">
<stop stop-color="white"/>
<stop offset="1" stop-color="white"/>
</linearGradient>
<linearGradient id="paint3_linear" x1="-10.7794" y1="14.3496" x2="30.6543" y2="32.982" gradientUnits="userSpaceOnUse">
<stop stop-color="white"/>
<stop offset="1" stop-color="white"/>
</linearGradient>
<linearGradient id="paint4_linear" x1="-10.7678" y1="14.3793" x2="14.9911" y2="25.9628" gradientUnits="userSpaceOnUse">
<stop stop-color="white"/>
<stop offset="1" stop-color="white"/>
</linearGradient>
<linearGradient id="paint5_linear" x1="2.66263" y1="29.634" x2="12.275" y2="33.9567" gradientUnits="userSpaceOnUse">
<stop stop-color="white"/>
<stop offset="1" stop-color="white"/>
</linearGradient>
</defs>
</svg>
