<svg data-v-fde0c5aa="" xmlns="http://www.w3.org/2000/svg" viewBox="0 0 300 300" class="iconAbove"><!----><defs data-v-fde0c5aa=""><!----></defs><rect data-v-fde0c5aa="" fill="transparent" x="0" y="0" width="300px" height="300px" class="logo-background-square"></rect><defs data-v-fde0c5aa=""><!----></defs><g data-v-fde0c5aa="" id="6b4e2b07-e457-4252-9cb3-00159e7ce427" fill="#000000"><path d=""></path></g><defs data-v-fde0c5aa=""><linearGradient data-v-fde0c5aa="" gradientTransform="rotate(25)" id="1cdeaff1-de0b-44a9-ae43-c3e5a1e41fc6" x1="0%" y1="0%" x2="100%" y2="0%"><stop data-v-fde0c5aa="" offset="0%" stop-color="#041804" stop-opacity="1"></stop><stop data-v-fde0c5aa="" offset="100%" stop-opacity="1"></stop></linearGradient></defs><g data-v-fde0c5aa="" id="3ffea423-f19a-48a3-87cb-c74a7e8d3d56" stroke="none" fill="url(#1cdeaff1-de0b-44a9-ae43-c3e5a1e41fc6)"><switch><g><path d="M63.563 70.538H34.38c-5.156 0-9.352-4.195-9.352-9.351V41.04c0-5.156 4.195-9.351 9.352-9.351h29.184c5.156 0 9.351 4.195 9.351 9.351a1.5 1.5 0 1 1-3 0 6.358 6.358 0 0 0-6.351-6.351H34.38a6.359 6.359 0 0 0-6.352 6.351v20.147a6.359 6.359 0 0 0 6.352 6.351h29.184a6.358 6.358 0 0 0 6.351-6.351 1.5 1.5 0 1 1 3 0c-.001 5.156-4.195 9.351-9.352 9.351z"></path><path d="M86.472 52.503h-21a1.5 1.5 0 1 1 0-3h21a1.5 1.5 0 1 1 0 3z"></path><path d="M86.472 52.503c-.397 0-.795-.157-1.09-.469l-8.334-8.81a1.5 1.5 0 0 1 2.18-2.062l8.334 8.81a1.5 1.5 0 0 1-1.09 2.531z"></path><path d="M78.138 61.313a1.5 1.5 0 0 1-1.09-2.531l8.334-8.811a1.5 1.5 0 0 1 2.18 2.062l-8.334 8.811a1.497 1.497 0 0 1-1.09.469zM49 58.003a1.49 1.49 0 0 1-1.025-.406l-16.333-15.31a1.5 1.5 0 1 1 2.051-2.188l16.333 15.31A1.5 1.5 0 0 1 49 58.003z"></path><path d="M32.667 62.313a1.501 1.501 0 0 1-1.05-2.572l10.166-9.966a1.5 1.5 0 1 1 2.1 2.143l-10.166 9.966a1.492 1.492 0 0 1-1.05.429zM49 58.003a1.5 1.5 0 0 1-1.037-2.584l16-15.31a1.5 1.5 0 0 1 2.074 2.168l-16 15.31a1.496 1.496 0 0 1-1.037.416z"></path><g><path d="M66 62.313c-.379 0-.758-.143-1.05-.429l-10.167-9.966a1.5 1.5 0 1 1 2.1-2.142l10.167 9.966A1.498 1.498 0 0 1 66 62.313z"></path></g></g></switch></g><!----></svg>