<svg width="25" height="20" viewBox="0 0 25 20" fill="none" xmlns="http://www.w3.org/2000/svg">
<path d="M23.0555 2.16262C21.2899 0.563285 19.3831 -0.154171 17.3919 0.0275797C15.2413 0.225242 13.5324 1.45966 12.4998 2.4257C11.4672 1.45966 9.7584 0.224889 7.60773 0.0275797C5.61582 -0.154171 3.70971 0.562931 1.94382 2.16262C-0.249173 4.14915 -0.361431 7.24351 0.501102 9.42947C2.06817 13.3916 6.69758 16.4449 10.4176 18.8978C10.8708 19.197 11.31 19.4866 11.7276 19.7673C11.8753 19.8659 12.0433 19.9345 12.2209 19.9689C12.3131 19.9876 12.4057 20 12.4987 20C12.5036 20 12.5078 19.9986 12.5127 19.9986C12.598 19.997 12.6829 19.9877 12.7663 19.971C12.7905 19.9661 12.8139 19.9615 12.8377 19.9551C12.9213 19.9346 13.0037 19.9084 13.0834 19.872L13.111 19.8575C13.1662 19.831 13.2202 19.8016 13.272 19.7666C13.6916 19.4841 14.133 19.1927 14.5889 18.8922C18.3066 16.4403 22.9334 13.3891 24.497 9.42876C25.3615 7.24598 25.2511 4.15233 23.0555 2.16262ZM22.0157 8.57057C20.7366 11.8099 16.4825 14.615 13.0645 16.8692C12.8725 16.9955 12.685 17.1196 12.4987 17.243C12.3154 17.1213 12.1305 16.9997 11.9416 16.8749C8.52092 14.6193 4.26382 11.8117 2.98249 8.57163C2.41742 7.1399 2.44652 5.15267 3.78417 3.94088C4.97894 2.85815 6.1412 2.38504 7.33786 2.49005C9.63329 2.69373 11.381 4.97622 11.4139 5.02007C11.4317 5.04411 11.454 5.06285 11.4736 5.08513C11.5035 5.11978 11.5326 5.15479 11.567 5.18697C11.6021 5.21985 11.6403 5.24743 11.6785 5.27607C11.7019 5.2934 11.7212 5.31391 11.7462 5.33017C11.7533 5.33477 11.7613 5.33725 11.7685 5.34184C11.8108 5.36836 11.8558 5.38887 11.9011 5.41044C11.9348 5.42635 11.9676 5.44474 12.0024 5.45818C12.0421 5.47303 12.0833 5.48258 12.1241 5.49424C12.1661 5.50591 12.2073 5.5197 12.2496 5.52713C12.2885 5.5342 12.3282 5.53526 12.3675 5.53915C12.4121 5.54339 12.4564 5.54976 12.501 5.54976C12.5433 5.54976 12.5853 5.5434 12.6272 5.53986C12.6692 5.53632 12.7111 5.53455 12.7523 5.52678C12.7928 5.51935 12.8328 5.50591 12.8729 5.49495C12.9152 5.48328 12.9579 5.47338 12.9988 5.45782C13.0328 5.44474 13.0645 5.42706 13.0978 5.41115C13.1435 5.38923 13.1889 5.36836 13.232 5.34149C13.2388 5.33725 13.2463 5.33477 13.2531 5.33053C13.2781 5.31426 13.2981 5.2934 13.3219 5.27572C13.3601 5.24708 13.3983 5.2195 13.4338 5.18661C13.4686 5.15408 13.4981 5.11837 13.5283 5.08301C13.5476 5.06073 13.5695 5.04199 13.5873 5.0183C13.6043 4.99531 15.3618 2.70221 17.6505 2.49182C18.8494 2.38185 20.0169 2.85532 21.2151 3.94123C22.5539 5.15408 22.5819 7.14026 22.0157 8.57057Z" fill="url(#paint0_linear)"/>
<defs>
<linearGradient id="paint0_linear" x1="-4.2758" y1="1.85756" x2="17.8192" y2="12.8707" gradientUnits="userSpaceOnUse">
<stop stop-color="#041804"/>
<stop offset="1"/>
</linearGradient>
</defs>
</svg>
